<svg xmlns="http://www.w3.org/2000/svg" width="850" height="298" viewBox="0 0 850 298">
  <rect width="100%" height="100%" rx="12" fill="#1a1b27"/>
  <text x="32" y="30" fill="#bb9af7" font-family="Arial, sans-serif" font-size="18" font-weight="700">Repository Visibility</text><text x="250" y="48" fill="#a9b1d6" font-family="Arial, sans-serif" font-size="11">Stars</text><text x="650" y="48" fill="#a9b1d6" font-family="Arial, sans-serif" font-size="11">Forks</text><text x="32" y="74" fill="#c0caf5" font-family="Arial, sans-serif" font-size="12">Asladdiin92</text><rect x="250" y="62" width="250" height="12" rx="6" fill="#24283b"/><rect x="250" y="62" width="250.0" height="12" rx="6" fill="#9ece6a"/><text x="510" y="73" fill="#a9b1d6" font-family="Arial, sans-serif" font-size="12">1 stars</text><rect x="650" y="62" width="100" height="12" rx="6" fill="#24283b"/><rect x="650" y="62" width="4.0" height="12" rx="6" fill="#f7768e"/><text x="760" y="73" fill="#a9b1d6" font-family="Arial, sans-serif" font-size="12">0 forks</text><text x="32" y="112" fill="#c0caf5" font-family="Arial, sans-serif" font-size="12">Asladdiin92.github.io</text><rect x="250" y="100" width="250" height="12" rx="6" fill="#24283b"/><rect x="250" y="100" width="4.0" height="12" rx="6" fill="#9ece6a"/><text x="510" y="111" fill="#a9b1d6" font-family="Arial, sans-serif" font-size="12">0 stars</text><rect x="650" y="100" width="100" height="12" rx="6" fill="#24283b"/><rect x="650" y="100" width="4.0" height="12" rx="6" fill="#f7768e"/><text x="760" y="111" fill="#a9b1d6" font-family="Arial, sans-serif" font-size="12">0 forks</text><text x="32" y="150" fill="#c0caf5" font-family="Arial, sans-serif" font-size="12">asladin</text><rect x="250" y="138" width="250" height="12" rx="6" fill="#24283b"/><rect x="250" y="138" width="4.0" height="12" rx="6" fill="#9ece6a"/><text x="510" y="149" fill="#a9b1d6" font-family="Arial, sans-serif" font-size="12">0 stars</text><rect x="650" y="138" width="100" height="12" rx="6" fill="#24283b"/><rect x="650" y="138" width="4.0" height="12" rx="6" fill="#f7768e"/><text x="760" y="149" fill="#a9b1d6" font-family="Arial, sans-serif" font-size="12">0 forks</text><text x="32" y="188" fill="#c0caf5" font-family="Arial, sans-serif" font-size="12">it-inventory-system</text><rect x="250" y="176" width="250" height="12" rx="6" fill="#24283b"/><rect x="250" y="176" width="4.0" height="12" rx="6" fill="#9ece6a"/><text x="510" y="187" fill="#a9b1d6" font-family="Arial, sans-serif" font-size="12">0 stars</text><rect x="650" y="176" width="100" height="12" rx="6" fill="#24283b"/><rect x="650" y="176" width="4.0" height="12" rx="6" fill="#f7768e"/><text x="760" y="187" fill="#a9b1d6" font-family="Arial, sans-serif" font-size="12">0 forks</text><text x="32" y="226" fill="#c0caf5" font-family="Arial, sans-serif" font-size="12">cci-materials</text><rect x="250" y="214" width="250" height="12" rx="6" fill="#24283b"/><rect x="250" y="214" width="4.0" height="12" rx="6" fill="#9ece6a"/><text x="510" y="225" fill="#a9b1d6" font-family="Arial, sans-serif" font-size="12">0 stars</text><rect x="650" y="214" width="100" height="12" rx="6" fill="#24283b"/><rect x="650" y="214" width="4.0" height="12" rx="6" fill="#f7768e"/><text x="760" y="225" fill="#a9b1d6" font-family="Arial, sans-serif" font-size="12">0 forks</text><text x="32" y="264" fill="#c0caf5" font-family="Arial, sans-serif" font-size="12">skills-introduction-to-githu</text><rect x="250" y="252" width="250" height="12" rx="6" fill="#24283b"/><rect x="250" y="252" width="4.0" height="12" rx="6" fill="#9ece6a"/><text x="510" y="263" fill="#a9b1d6" font-family="Arial, sans-serif" font-size="12">0 stars</text><rect x="650" y="252" width="100" height="12" rx="6" fill="#24283b"/><rect x="650" y="252" width="4.0" height="12" rx="6" fill="#f7768e"/><text x="760" y="263" fill="#a9b1d6" font-family="Arial, sans-serif" font-size="12">0 forks</text>
</svg>
