<svg xmlns="http://www.w3.org/2000/svg" width="850" height="225" viewBox="0 0 850 225">
  <rect width="100%" height="100%" rx="12" fill="#1a1b27"/>
  <text x="32" y="30" fill="#bb9af7" font-family="Arial, sans-serif" font-size="18" font-weight="700">Technology Activity Over Time</text><text x="32" y="50" fill="#a9b1d6" font-family="Arial, sans-serif" font-size="12">Repository updates grouped by primary language</text><line x1="80" y1="175" x2="780" y2="175" stroke="#414868"/><polyline points="80.0,148.8 220.0,148.8 360.0,148.8 500.0,148.8 640.0,70.0 780.0,122.5" fill="none" stroke="#7aa2f7" stroke-width="3"/><text x="80" y="52" fill="#7aa2f7" font-family="Arial, sans-serif" font-size="12">Other</text><polyline points="80.0,175.0 220.0,175.0 360.0,175.0 500.0,175.0 640.0,148.8 780.0,148.8" fill="none" stroke="#7dcfff" stroke-width="3"/><text x="80" y="70" fill="#7dcfff" font-family="Arial, sans-serif" font-size="12">Python</text><polyline points="80.0,175.0 220.0,148.8 360.0,175.0 500.0,175.0 640.0,175.0 780.0,175.0" fill="none" stroke="#9ece6a" stroke-width="3"/><text x="80" y="88" fill="#9ece6a" font-family="Arial, sans-serif" font-size="12">Java</text><polyline points="80.0,175.0 220.0,175.0 360.0,175.0 500.0,175.0 640.0,175.0 780.0,148.8" fill="none" stroke="#bb9af7" stroke-width="3"/><text x="80" y="106" fill="#bb9af7" font-family="Arial, sans-serif" font-size="12">HTML</text><text x="80.0" y="198" text-anchor="middle" fill="#a9b1d6" font-family="Arial, sans-serif" font-size="11">09</text><text x="220.0" y="198" text-anchor="middle" fill="#a9b1d6" font-family="Arial, sans-serif" font-size="11">01</text><text x="360.0" y="198" text-anchor="middle" fill="#a9b1d6" font-family="Arial, sans-serif" font-size="11">04</text><text x="500.0" y="198" text-anchor="middle" fill="#a9b1d6" font-family="Arial, sans-serif" font-size="11">07</text><text x="640.0" y="198" text-anchor="middle" fill="#a9b1d6" font-family="Arial, sans-serif" font-size="11">08</text><text x="780.0" y="198" text-anchor="middle" fill="#a9b1d6" font-family="Arial, sans-serif" font-size="11">09</text>
</svg>
